<mxfile host="app.diagrams.net" modified="2024-01-27T09:03:39.363Z" agent="Mozilla/5.0 (Macintosh; Intel Mac OS X 10_15_7) AppleWebKit/537.36 (KHTML, like Gecko) Chrome/120.0.0.0 Safari/537.36" etag="tjNZ2jqBTA6GE3oJLA_7" version="23.0.2" type="github">
  <diagram name="第 1 页" id="4oUNClY9qSjRjuL-bmPs">
    <mxGraphModel dx="682" dy="701" grid="1" gridSize="10" guides="1" tooltips="1" connect="1" arrows="1" fold="1" page="1" pageScale="1" pageWidth="827" pageHeight="1169" math="1" shadow="0">
      <root>
        <mxCell id="0" />
        <mxCell id="1" parent="0" />
        <mxCell id="M_dUU4IW7gTU8B-7q8Td-1" value="state" style="rounded=0;whiteSpace=wrap;html=1;" vertex="1" parent="1">
          <mxGeometry x="150" y="260" width="60" height="30" as="geometry" />
        </mxCell>
        <mxCell id="M_dUU4IW7gTU8B-7q8Td-4" value="" style="endArrow=classic;html=1;rounded=0;" edge="1" parent="1">
          <mxGeometry width="50" height="50" relative="1" as="geometry">
            <mxPoint x="210" y="277.5" as="sourcePoint" />
            <mxPoint x="250" y="277" as="targetPoint" />
          </mxGeometry>
        </mxCell>
        <mxCell id="M_dUU4IW7gTU8B-7q8Td-5" value="DQN&lt;br&gt;&lt;font style=&quot;font-size: 10px;&quot;&gt;certain neural network&lt;/font&gt;" style="rounded=1;whiteSpace=wrap;html=1;" vertex="1" parent="1">
          <mxGeometry x="250" y="255" width="110" height="40" as="geometry" />
        </mxCell>
        <mxCell id="M_dUU4IW7gTU8B-7q8Td-11" value="" style="group" vertex="1" connectable="0" parent="1">
          <mxGeometry x="360" y="225" width="50" height="100" as="geometry" />
        </mxCell>
        <mxCell id="M_dUU4IW7gTU8B-7q8Td-8" value="" style="strokeWidth=1;html=1;shape=mxgraph.flowchart.annotation_2;align=left;labelPosition=right;pointerEvents=1;" vertex="1" parent="M_dUU4IW7gTU8B-7q8Td-11">
          <mxGeometry width="50" height="100" as="geometry" />
        </mxCell>
        <mxCell id="M_dUU4IW7gTU8B-7q8Td-10" value="" style="endArrow=none;html=1;rounded=0;endSize=1;exitX=1;exitY=0.5;exitDx=0;exitDy=0;exitPerimeter=0;" edge="1" parent="M_dUU4IW7gTU8B-7q8Td-11" source="M_dUU4IW7gTU8B-7q8Td-8">
          <mxGeometry width="50" height="50" relative="1" as="geometry">
            <mxPoint x="60" y="50" as="sourcePoint" />
            <mxPoint x="26" y="49.629999999999995" as="targetPoint" />
          </mxGeometry>
        </mxCell>
        <mxCell id="M_dUU4IW7gTU8B-7q8Td-12" value="$$Q(s_t, a_1;w)$$" style="text;html=1;align=center;verticalAlign=middle;resizable=0;points=[];autosize=1;strokeColor=none;fillColor=none;" vertex="1" parent="1">
          <mxGeometry x="390" y="210" width="120" height="30" as="geometry" />
        </mxCell>
        <mxCell id="M_dUU4IW7gTU8B-7q8Td-15" value="$$Q(s_t, a_2;w)$$" style="text;html=1;align=center;verticalAlign=middle;resizable=0;points=[];autosize=1;strokeColor=none;fillColor=none;" vertex="1" parent="1">
          <mxGeometry x="390" y="260" width="120" height="30" as="geometry" />
        </mxCell>
        <mxCell id="M_dUU4IW7gTU8B-7q8Td-16" value="$$Q(s_t, a_3;w)$$" style="text;html=1;align=center;verticalAlign=middle;resizable=0;points=[];autosize=1;strokeColor=none;fillColor=none;" vertex="1" parent="1">
          <mxGeometry x="390" y="310" width="120" height="30" as="geometry" />
        </mxCell>
      </root>
    </mxGraphModel>
  </diagram>
</mxfile>
